<svg width="21" height="16" viewBox="0 0 21 16" fill="none" xmlns="http://www.w3.org/2000/svg">
<g clip-path="url(#clip0_414_277)">
<path d="M10.5 0H21V15.75H10.5V0Z" fill="white"/>
<path d="M0 0H10.5V15.75H0V0Z" fill="#006233"/>
<path d="M13.9125 5.90625C13.4791 5.1556 12.8102 4.56893 12.0094 4.23723C11.2086 3.90552 10.3207 3.84733 9.48346 4.07167C8.64622 4.29601 7.9064 4.79034 7.37873 5.478C6.85107 6.16566 6.56506 7.00822 6.56506 7.875C6.56506 8.74178 6.85107 9.58434 7.37873 10.272C7.9064 10.9597 8.64622 11.454 9.48346 11.6783C10.3207 11.9027 11.2086 11.8445 12.0094 11.5128C12.8102 11.1811 13.4791 10.5944 13.9125 9.84375C13.5046 10.3532 12.9486 10.7234 12.3212 10.9032C11.6938 11.0829 11.0261 11.0634 10.4103 10.8472C9.79453 10.6311 9.26107 10.229 8.88367 9.69657C8.50628 9.16414 8.30357 8.52763 8.30357 7.875C8.30357 7.22238 8.50628 6.58587 8.88367 6.05343C9.26107 5.52099 9.79453 5.11892 10.4103 4.90278C11.0261 4.68663 11.6938 4.66709 12.3212 4.84685C12.9486 5.02661 13.5046 5.3968 13.9125 5.90625ZM14.0438 7.875L10.5 6.72L12.705 9.73875V6.01125L10.5 9.03L14.0438 7.875Z" fill="#D21034"/>
</g>
<defs>
<clipPath id="clip0_414_277">
<rect width="21" height="15.75" rx="2" fill="white"/>
</clipPath>
</defs>
</svg>
