<svg width="42" height="42" viewBox="0 0 42 42" fill="none" xmlns="http://www.w3.org/2000/svg">
<g clip-path="url(#clip0_414_582)">
<path d="M21 0C9.41719 0 0 9.41719 0 21C0 32.5828 9.41719 42 21 42C32.5828 42 42 32.5828 42 21C42 9.41719 32.5828 0 21 0ZM35.0438 29.2359C35.5688 29.7281 35.5688 30.5813 35.0766 31.1063C34.8141 31.3688 34.4859 31.5 34.125 31.5C33.7969 31.5 33.4688 31.3687 33.2062 31.1391C30.7453 28.7437 29.2359 25.6594 28.9406 22.3125H22.3125V36.75C22.3125 37.4719 21.7219 38.0625 21 38.0625C20.2781 38.0625 19.6875 37.4719 19.6875 36.75V22.3125H13.0594C12.7641 25.6594 11.2875 28.7437 8.82656 31.1391C8.53125 31.4016 8.20312 31.5 7.875 31.5C7.54688 31.5 7.18594 31.3688 6.92344 31.1063C6.43125 30.5813 6.43125 29.7609 6.95625 29.2359C8.925 27.3656 10.1062 24.9375 10.4016 22.3125H5.25C4.52812 22.3125 3.9375 21.7219 3.9375 21C3.9375 20.2781 4.52812 19.6875 5.25 19.6875H10.4016C10.1062 17.0625 8.925 14.6344 6.95625 12.7312C6.43125 12.2391 6.43125 11.3859 6.92344 10.8609C7.41563 10.3359 8.26875 10.3359 8.79375 10.8281C11.2547 13.2234 12.7312 16.3078 13.0266 19.6547H19.6875V5.25C19.6875 4.52812 20.2781 3.9375 21 3.9375C21.7219 3.9375 22.3125 4.52812 22.3125 5.25V19.6875H28.9406C29.2687 16.3406 30.7453 13.2562 33.2391 10.8609C33.7641 10.3687 34.5844 10.3688 35.1094 10.8938C35.6016 11.4187 35.6016 12.2391 35.0766 12.7641C33.1078 14.6672 31.8938 17.0625 31.5984 19.6875H36.75C37.4719 19.6875 38.0625 20.2781 38.0625 21C38.0625 21.7219 37.4719 22.3125 36.75 22.3125H31.5656C31.8609 24.9375 33.075 27.3328 35.0438 29.2359Z" fill="white"/>
</g>
<defs>
<clipPath id="clip0_414_582">
<rect width="42" height="42" fill="white"/>
</clipPath>
</defs>
</svg>
