<svg width="28" height="20" viewBox="0 0 28 20" fill="none" xmlns="http://www.w3.org/2000/svg">
<rect width="28" height="20" rx="3" fill="#F93939"/>
<path fill-rule="evenodd" clip-rule="evenodd" d="M18.6693 11.536L17.1199 12.3493L17.4159 10.6253L16.1626 9.40266L17.8959 9.14933L18.6693 7.58133L19.4426 9.15066L21.1759 9.404L19.9226 10.624L20.2186 12.348" fill="white"/>
<path fill-rule="evenodd" clip-rule="evenodd" d="M12.6667 14.6667C15.244 14.6667 17.3333 12.5773 17.3333 10C17.3333 7.42268 15.244 5.33334 12.6667 5.33334C10.0893 5.33334 8 7.42268 8 10C8 12.5773 10.0893 14.6667 12.6667 14.6667ZM14 13.3333C15.84 13.3333 17.3333 11.84 17.3333 10C17.3333 8.16001 15.84 6.66668 14 6.66668C12.16 6.66668 10.6667 8.16001 10.6667 10C10.6667 11.84 12.16 13.3333 14 13.3333Z" fill="white"/>
</svg>
