<svg width="21" height="16" viewBox="0 0 21 16" fill="none" xmlns="http://www.w3.org/2000/svg">
<g clip-path="url(#clip0_414_310)">
<path d="M0 0H21V15.75H0V0Z" fill="#DE2910"/>
<path d="M2.54829 5.85113L3.93743 1.575L5.32656 5.85113L1.68835 3.20513H6.1865L2.54829 5.85113Z" fill="#FFDE00"/>
<path d="M8.66969 1.64421L7.20903 1.97964L8.19369 0.849806L8.06046 2.34344L7.28979 1.05726L8.66969 1.64421Z" fill="#FFDE00"/>
<path d="M10.1452 3.51174L8.66877 3.2544L10.0146 2.5949L9.31247 3.91995L9.10095 2.43554L10.1452 3.51174Z" fill="#FFDE00"/>
<path d="M9.93458 6.13349L8.69149 5.29636L10.1892 5.24309L9.00777 6.16657L9.42005 4.72496L9.93458 6.13349Z" fill="#FFDE00"/>
<path d="M8.0814 7.8494L7.25809 6.59711L8.66018 7.12644L7.21373 7.52195L8.1508 6.35145L8.0814 7.8494Z" fill="#FFDE00"/>
</g>
<defs>
<clipPath id="clip0_414_310">
<rect width="21" height="15.75" rx="2" fill="white"/>
</clipPath>
</defs>
</svg>
