<svg width="42" height="42" viewBox="0 0 42 42" fill="none" xmlns="http://www.w3.org/2000/svg">
<g clip-path="url(#clip0_414_604)">
<path d="M-0.000244141 21C-0.000244141 32.5828 9.28569 42 20.7373 42C22.2466 42 23.7232 41.8359 25.1669 41.5078C23.9857 39.5719 20.6716 35.0438 14.3388 32.3531C14.0107 32.2219 6.52944 28.6453 4.88882 21.9844C4.00288 18.375 5.02007 14.6344 7.90757 10.8938L7.84194 10.9922C7.97319 10.7953 11.2544 5.84063 16.7013 5.31563C20.3107 4.9875 23.8873 6.62812 27.3326 10.2703L27.431 10.3688L27.5294 10.5C29.5638 13.65 35.8638 21.5578 41.4419 21.7219C41.4419 21.4922 41.4748 21.2297 41.4748 21C41.4748 9.41719 32.1888 0 20.7373 0C9.28569 0 -0.000244141 9.41719 -0.000244141 21ZM24.9373 12.4359C22.2466 9.61406 19.556 8.30156 17.0294 8.53125C13.1248 8.89219 10.5654 12.7313 10.5326 12.7641L10.4998 12.8297L10.4669 12.8625C8.23569 15.7828 7.41538 18.6047 8.03882 21.1969C9.28569 26.3156 15.6513 29.3672 15.6513 29.4C23.5919 32.7469 27.3654 38.7516 28.3169 40.5234C34.8466 37.9313 39.7685 32.0578 41.1138 24.9047C33.1732 24.4781 25.9216 13.8797 24.9373 12.4359Z" fill="white"/>
</g>
<defs>
<clipPath id="clip0_414_604">
<rect width="42" height="42" fill="white"/>
</clipPath>
</defs>
</svg>
