<svg width="21" height="16" viewBox="0 0 21 16" fill="none" xmlns="http://www.w3.org/2000/svg">
<g clip-path="url(#clip0_414_287)">
<path d="M0 0H21V15.75H0V0Z" fill="#000066"/>
<path d="M0 0V0.917109L10.0747 8.20312H11.3428V7.28602L1.2681 0H0ZM11.3428 0V0.917109L1.2681 8.20312H0V7.28602L10.0747 0H11.3428Z" fill="white"/>
<path d="M4.72615 0V8.20312H6.61661V0H4.72612H4.72615ZM0 2.73436V5.46873H11.3428V2.73436H0Z" fill="white"/>
<path d="M0 3.28125V4.92188H11.3428V3.28125H0ZM5.10425 0V8.20312H6.23851V0H5.10425ZM0 8.20312L3.78092 5.46873H4.62633L0.845414 8.20312H0ZM0 0L3.78092 2.73436H2.9355L0 0.611395V0ZM6.71639 2.73436L10.4974 0H11.3428L7.56184 2.73436H6.71639ZM11.3428 8.20312L7.56187 5.46873H8.40728L11.3428 7.5917V8.20312H11.3428Z" fill="#CC0000"/>
<path fill-rule="evenodd" clip-rule="evenodd" d="M9.83597 12.8797L8.4036 13.0042L8.60091 14.4284L7.6104 13.3862L6.61992 14.4284L6.81725 13.0042L5.38489 12.8797L6.62126 12.1458L5.82576 10.9484L7.17008 11.4574L7.61043 10.0887L8.05077 11.4574L9.3951 10.9483L8.59966 12.1457M15.9642 14.1923L15.6185 13.6721L16.2029 13.8933L16.394 13.2986L16.5851 13.8934L17.1694 13.6722L16.8237 14.1924L17.3608 14.5112L16.7385 14.5654L16.8243 15.1839L16.394 14.7313L15.9636 15.1839L16.0494 14.5654L15.4272 14.5113M15.9642 4.93609L15.6185 4.41581L16.2029 4.63703L16.394 4.0424L16.5851 4.63697L17.1694 4.41581L16.8237 4.93605L17.3608 5.25489L16.7385 5.30903L16.8243 5.92755L16.394 5.47497L15.9636 5.92758L16.0494 5.30907L15.4272 5.25492M12.4931 8.6964L12.1474 8.17622L12.7317 8.39744L12.9228 7.80272L13.114 8.39744L13.6983 8.17622L13.3526 8.6964L13.8897 9.01534L13.2674 9.06948L13.3532 9.68799L12.9228 9.23534L12.4924 9.68799L12.5783 9.06948L11.956 9.01534M19.0505 7.77079L18.7041 7.25058L19.2889 7.4718L19.4786 6.87708L19.6707 7.4718L20.2538 7.25058L19.909 7.77079L20.4459 8.08966L19.8234 8.1438L19.909 8.76232L19.4786 8.30974L19.0482 8.76232L19.1338 8.1438L18.5125 8.08966M17.7824 10.4979L17.4422 10.7087L17.5378 10.3202L17.2321 10.0622L17.6313 10.0328L17.7824 9.66236L17.9335 10.0328L18.3327 10.0623L18.027 10.3203L18.1225 10.7088" fill="white"/>
</g>
<defs>
<clipPath id="clip0_414_287">
<rect width="21" height="15.75" rx="2" fill="white"/>
</clipPath>
</defs>
</svg>
