<svg width="12" height="11" viewBox="0 0 12 11" fill="none" xmlns="http://www.w3.org/2000/svg">
<g id="svgviewer-output (7) 1" clip-path="url(#clip0_414_454)">
<path id="Vector" d="M5.8004 0.229202C2.994 0.229202 0.712769 2.51043 0.712769 5.31683C0.712769 8.12323 2.994 10.4045 5.8004 10.4045C8.6068 10.4045 10.888 8.12323 10.888 5.31683C10.888 2.51043 8.6068 0.229202 5.8004 0.229202ZM7.33216 2.0509L5.9481 1.3452V0.97867C6.94922 1.01149 7.90657 1.39443 8.66151 2.0509H7.33216ZM8.97333 2.35178C9.42738 2.83866 9.75562 3.41307 9.95256 4.04766L9.17574 5.40436L8.03239 5.2293L6.99298 3.43496L7.40874 2.34631C7.41422 2.35178 8.97333 2.35178 8.97333 2.35178ZM6.65928 3.63737L7.66039 5.37701L6.77963 6.89783H4.82117L3.9404 5.37154L4.94152 3.6319H6.65928V3.63737ZM5.65269 1.3452L4.26864 2.0509H2.93382C3.68876 1.38896 4.64611 1.01149 5.64722 0.97867V1.3452H5.65269ZM4.18658 2.35178L4.60234 3.44043L3.56841 5.2293L2.43053 5.40436L1.64277 4.03672C1.83971 3.4076 2.17341 2.83319 2.63294 2.35178H4.18658ZM2.26094 5.70524L2.33206 7.13853L1.96553 7.35735C1.62635 6.72824 1.4513 6.02801 1.4513 5.31136C1.4513 5.02689 1.47865 4.73148 1.5443 4.45248L2.26094 5.70524ZM2.46335 7.41206L3.71611 8.21076L4.4054 9.4307C3.45899 9.11341 2.64388 8.46788 2.11323 7.61447L2.46335 7.41206ZM4.06076 8.22717L4.82117 7.29171H6.77416L7.53457 8.22717L6.77416 9.54011C6.4514 9.6167 6.12863 9.65499 5.79493 9.66046C5.46122 9.66046 5.13846 9.62217 4.8157 9.54011L4.06076 8.22717ZM7.19539 9.41976L7.88468 8.21623L9.13744 7.41753L9.48209 7.61994C8.95145 8.46241 8.1418 9.10246 7.19539 9.41976ZM9.26327 7.13853L9.33438 5.70524L10.0565 4.45795C10.1112 4.73695 10.144 5.02142 10.1495 5.31136C10.1495 6.02801 9.97444 6.72824 9.63527 7.35735L9.26327 7.13853Z" fill="#22B14C"/>
</g>
<defs>
<clipPath id="clip0_414_454">
<rect width="10.6129" height="10.6129" fill="white" transform="translate(0.493774 0.0322571)"/>
</clipPath>
</defs>
</svg>
