<svg width="30" height="30" viewBox="0 0 30 30" fill="none" xmlns="http://www.w3.org/2000/svg">
<g clip-path="url(#clip0_1339_192)">
<path d="M19.082 17.5356H18.271L17.9836 17.2586C19.2154 15.8223 19.8518 13.8628 19.5028 11.7803C19.0204 8.92825 16.6389 6.65074 13.7647 6.30194C9.42254 5.76847 5.76818 9.42068 6.30197 13.7603C6.65098 16.6328 8.92982 19.0129 11.7835 19.4951C13.8673 19.8439 15.8279 19.2078 17.265 17.9767L17.5422 18.264V19.0744L21.9049 23.4345C22.3257 23.8552 23.0135 23.8552 23.4343 23.4345C23.8552 23.0139 23.8552 22.3266 23.4343 21.9059L19.082 17.5356ZM12.9229 17.5356C10.3669 17.5356 8.30365 15.4735 8.30365 12.919C8.30365 10.3645 10.3669 8.30245 12.9229 8.30245C15.4789 8.30245 17.5422 10.3645 17.5422 12.919C17.5422 15.4735 15.4789 17.5356 12.9229 17.5356Z" fill="white"/>
</g>
<defs>
<clipPath id="clip0_1339_192">
<rect width="30" height="30" rx="5" fill="white"/>
</clipPath>
</defs>
</svg>
