<svg width="25" height="24" viewBox="0 0 25 24" fill="none" xmlns="http://www.w3.org/2000/svg">
<g id="Frame">
<path id="Vector" d="M8.85964 6.375H21.0418M8.85964 11.625H21.0418M8.85964 16.875H21.0418M4.29134 6.375H4.29844V6.383H4.29134V6.375ZM4.67203 6.375C4.67203 6.47446 4.63192 6.56984 4.56053 6.64016C4.48913 6.71049 4.3923 6.75 4.29134 6.75C4.19037 6.75 4.09354 6.71049 4.02215 6.64016C3.95075 6.56984 3.91064 6.47446 3.91064 6.375C3.91064 6.27554 3.95075 6.18016 4.02215 6.10984C4.09354 6.03951 4.19037 6 4.29134 6C4.3923 6 4.48913 6.03951 4.56053 6.10984C4.63192 6.18016 4.67203 6.27554 4.67203 6.375ZM4.29134 11.625H4.29844V11.633H4.29134V11.625ZM4.67203 11.625C4.67203 11.7245 4.63192 11.8198 4.56053 11.8902C4.48913 11.9605 4.3923 12 4.29134 12C4.19037 12 4.09354 11.9605 4.02215 11.8902C3.95075 11.8198 3.91064 11.7245 3.91064 11.625C3.91064 11.5255 3.95075 11.4302 4.02215 11.3598C4.09354 11.2895 4.19037 11.25 4.29134 11.25C4.3923 11.25 4.48913 11.2895 4.56053 11.3598C4.63192 11.4302 4.67203 11.5255 4.67203 11.625V11.625ZM4.29134 16.875H4.29844V16.883H4.29134V16.875ZM4.67203 16.875C4.67203 16.9745 4.63192 17.0698 4.56053 17.1402C4.48913 17.2105 4.3923 17.25 4.29134 17.25C4.19037 17.25 4.09354 17.2105 4.02215 17.1402C3.95075 17.0698 3.91064 16.9745 3.91064 16.875C3.91064 16.7755 3.95075 16.6802 4.02215 16.6098C4.09354 16.5395 4.19037 16.5 4.29134 16.5C4.3923 16.5 4.48913 16.5395 4.56053 16.6098C4.63192 16.6802 4.67203 16.7755 4.67203 16.875Z" stroke="white" stroke-width="1.5" stroke-linecap="round" stroke-linejoin="round"/>
</g>
</svg>
