<svg width="24" height="24" viewBox="0 0 24 24" fill="none" xmlns="http://www.w3.org/2000/svg">
<path d="M11.5 20C13.1625 19.9999 14.7779 19.4477 16.0925 18.43C17.4072 17.4124 18.3466 15.9869 18.7633 14.3775M11.5 20C9.8375 19.9999 8.22211 19.4477 6.90748 18.43C5.59284 17.4124 4.6534 15.9869 4.23667 14.3775M11.5 20C13.5708 20 15.25 16.6417 15.25 12.5C15.25 8.35833 13.5708 5 11.5 5M11.5 20C9.42917 20 7.75 16.6417 7.75 12.5C7.75 8.35833 9.42917 5 11.5 5M11.5 5C12.8302 4.99945 14.1366 5.3528 15.2852 6.0238C16.4337 6.69481 17.3831 7.65931 18.0358 8.81833M11.5 5C10.1698 4.99945 8.8634 5.3528 7.71484 6.0238C6.56628 6.69481 5.61692 7.65931 4.96417 8.81833M18.0358 8.81833C16.2214 10.3899 13.9004 11.2535 11.5 11.25C9.00167 11.25 6.71667 10.3333 4.96417 8.81833M18.0358 8.81833C18.6699 9.94166 19.002 11.2101 19 12.5C19 13.1483 18.9175 13.7775 18.7633 14.3775M18.7633 14.3775C16.541 15.6095 14.041 16.254 11.5 16.25C8.865 16.25 6.38917 15.5708 4.23667 14.3775M4.23667 14.3775C4.07896 13.7641 3.99944 13.1333 4 12.5C4 11.1625 4.35 9.90583 4.96417 8.81833" stroke="#22B14C" stroke-width="1.5" stroke-linecap="round" stroke-linejoin="round"/>
</svg>
