<svg width="25" height="25" viewBox="0 0 25 25" fill="none" xmlns="http://www.w3.org/2000/svg">
<g clip-path="url(#clip0_1339_199)">
<path d="M21.6864 0.0213308C21.5095 -0.020749 21.3233 0.0019632 21.1617 0.0853506L20.0126 0.659193L18.8537 0.0797431C18.7499 0.0278399 18.6354 0.000818423 18.5193 0.000818423C18.4033 0.000818423 18.2888 0.0278399 18.185 0.0797431L17.0116 0.65966L15.8536 0.0797431C15.7495 0.0274604 15.6346 0.000233106 15.5181 0.000233106C15.4016 0.000233106 15.2867 0.0274604 15.1826 0.0797431L14.0312 0.657791L12.8886 0.0811449C12.7848 0.0285027 12.6701 0.000836368 12.5537 0.000349599C12.4372 -0.000137171 12.3223 0.026569 12.218 0.0783411L11.0404 0.660127L9.88154 0.0792757C9.77755 0.0273973 9.66293 0.000392916 9.54672 0.000392916C9.43051 0.000392916 9.31589 0.0273973 9.2119 0.0792757L8.04973 0.659193L6.88896 0.0792757C6.73932 0.00426408 6.56884 -0.0183625 6.40481 0.0150193C6.24078 0.0484011 6.0927 0.13586 5.98427 0.263391C5.86741 0.402674 5.8044 0.579264 5.8067 0.761064V11.9631L5.80904 11.9655H14.7788C15.1754 11.9655 15.5558 12.123 15.8362 12.4035C16.1166 12.6839 16.2742 13.0642 16.2742 13.4608V18.3184C16.2742 19.7637 17.8195 20.9353 19.2649 20.9353H19.8256C20.4701 20.9353 21.0882 20.6793 21.5439 20.2235C21.9996 19.7678 22.2556 19.1498 22.2556 18.5053V0.74798C22.2557 0.580635 22.1997 0.418083 22.0965 0.286341C21.9933 0.1546 21.8489 0.0612843 21.6864 0.0213308ZM18.5172 9.72011H12.5592C12.1554 9.72011 11.8068 9.40982 11.7891 9.00607C11.7845 8.90517 11.8005 8.8044 11.8359 8.70983C11.8714 8.61526 11.9257 8.52886 11.9955 8.45584C12.0652 8.38282 12.1491 8.3247 12.242 8.28498C12.3348 8.24526 12.4348 8.22478 12.5358 8.22475H18.4938C18.8976 8.22475 19.2462 8.53504 19.264 8.93878C19.2685 9.03969 19.2526 9.14046 19.2171 9.23503C19.1816 9.3296 19.1273 9.416 19.0576 9.48902C18.9878 9.56204 18.9039 9.62016 18.811 9.65988C18.7182 9.69959 18.6182 9.72008 18.5172 9.72011ZM18.5172 5.98172H9.56845C9.16471 5.98172 8.8161 5.67143 8.79834 5.26769C8.7938 5.16679 8.80975 5.06601 8.84522 4.97144C8.8807 4.87687 8.93496 4.79047 9.00475 4.71745C9.07454 4.64443 9.1584 4.58631 9.25126 4.54659C9.34413 4.50688 9.44408 4.48639 9.54509 4.48637H18.4938C18.8976 4.48637 19.2462 4.79665 19.264 5.2004C19.2685 5.3013 19.2526 5.40208 19.2171 5.49664C19.1816 5.59121 19.1273 5.67762 19.0576 5.75063C18.9878 5.82365 18.9039 5.88177 18.811 5.92149C18.7182 5.96121 18.6182 5.9817 18.5172 5.98172Z" fill="#F9F9F9"/>
<path d="M14.7792 18.3176V14.2054C14.7792 14.0071 14.7005 13.8169 14.5602 13.6767C14.42 13.5365 14.2298 13.4577 14.0315 13.4577H1.32104C0.924421 13.4589 0.544435 13.6172 0.264202 13.8979C-0.0160312 14.1785 -0.173701 14.5588 -0.174316 14.9554C-0.174316 17.3176 0.0957819 18.2998 0.501397 19.0475C1.18973 20.3172 2.43601 20.9345 4.31175 20.9345H15.7923C15.8292 20.9345 15.8653 20.9236 15.896 20.9032C15.9267 20.8828 15.9507 20.8537 15.9649 20.8197C15.9791 20.7857 15.983 20.7482 15.976 20.712C15.969 20.6758 15.9514 20.6425 15.9255 20.6162C15.4834 20.1728 14.7792 19.5793 14.7792 18.3176Z" fill="#F9F9F9"/>
<path d="M21.0551 19.9451L20.9085 19.7979H20.7801C21.4163 18.7786 21.7076 17.5239 21.487 16.2075L21.4869 16.2067C21.1141 14.0029 19.2802 12.2487 17.0587 11.9789C13.713 11.5681 10.894 14.3846 11.305 17.7292C11.5748 19.9501 13.3304 21.7829 15.5352 22.1554L15.5359 22.1556C16.8531 22.376 18.1086 22.0848 19.1286 21.4488V21.5767L19.2751 21.7232L22.3131 24.7594C22.8014 25.2474 23.5968 25.2474 24.0851 24.7594C24.5735 24.2713 24.5736 23.4762 24.0855 22.988C24.0853 22.9878 24.0852 22.9877 24.0851 22.9876L21.0551 19.9451ZM16.4119 19.7979C14.9079 19.7979 13.6952 18.5855 13.6952 17.0831C13.6952 15.5807 14.9079 14.3683 16.4119 14.3683C17.9159 14.3683 19.1286 15.5807 19.1286 17.0831C19.1286 18.5855 17.9159 19.7979 16.4119 19.7979Z" fill="white" stroke="#151515"/>
</g>
<defs>
<clipPath id="clip0_1339_199">
<rect width="25" height="25" fill="white"/>
</clipPath>
</defs>
</svg>
